<?xml version="1.0" encoding="utf-8"?>
<!-- Svg Vector Icons : http://www.onlinewebfonts.com/icon -->
<!DOCTYPE svg PUBLIC "-//W3C//DTD SVG 1.1//EN" "http://www.w3.org/Graphics/SVG/1.1/DTD/svg11.dtd">
<svg version="1.1" xmlns="http://www.w3.org/2000/svg" xmlns:xlink="http://www.w3.org/1999/xlink" x="0px" y="0px" viewBox="0 0 1000 1000" enable-background="new 0 0 1000 1000" xml:space="preserve">
<metadata> Svg Vector Icons : http://www.onlinewebfonts.com/icon </metadata>
<g><path d="M271.4,761.3c-36.1,0-65.3-29.3-65.3-65.3V173.3c0-36.1,29.2-65.3,65.3-65.3c36.1,0,65.3,29.3,65.3,65.3V696C336.7,732.1,307.5,761.3,271.4,761.3z"/><path d="M271.4,892L26.2,655.9c-21.6-20.7-21.6-54.4,0-75c21.5-20.7,56.4-20.7,77.9,0l167.3,161l167.3-161c21.5-20.7,56.4-20.7,77.9,0c21.6,20.7,21.6,54.3,0,75L271.4,892z"/><path d="M728.7,238.7c36.1,0,65.3,29.3,65.3,65.3v522.7c0,36.1-29.2,65.3-65.3,65.3c-36.1,0-65.3-29.3-65.3-65.3V304C663.4,267.9,692.6,238.7,728.7,238.7z"/><path d="M728.7,108l245.2,236.1c21.5,20.7,21.5,54.4,0,75c-21.6,20.7-56.4,20.7-77.9,0l-167.3-161l-167.3,161c-21.6,20.7-56.4,20.7-77.9,0c-21.5-20.7-21.5-54.3,0-75L728.7,108z"/></g>
</svg>